<?xml version="1.0" encoding="UTF-8"?>
<svg id="b" data-name="Layer 2" xmlns="http://www.w3.org/2000/svg" width="48" height="48" viewBox="0 0 48 48">
  <g id="c" data-name="Layer 1">
    <rect x="0" width="48" height="48" rx="5.083" ry="5.083" fill="#161618"/>
    <g>
      <path d="M2.37,11.316l5.499,.032,6.067,18.518h.032l5.973-18.549h5.499v22.563h-3.35V15.108h-.063l-6.226,18.771h-3.76L5.783,15.108h-.063v18.771H2.37V11.316Z" fill="#f7f7f7"/>
      <path d="M34.6,17.099c5.721,0,6.731,3.571,6.731,6.605v6.636c0,1.232,.095,2.654,.253,3.539h-3.382c-.062-.695-.062-1.358-.062-2.148v-.695h-.032c-.474,1.295-1.832,3.255-5.309,3.255-3.792,0-5.72-2.402-5.72-4.867,0-4.582,5.688-4.834,8.09-5.246,2.117-.348,2.938-.853,2.938-2.212s-1.264-2.244-3.444-2.244c-1.864,0-3.255,1.074-3.634,2.781h-3.16c.379-2.497,2.465-5.404,6.73-5.404Zm-1.074,14.632c2.339,0,4.646-1.485,4.646-5.436v-1.991c-.348,.979-1.138,1.896-4.266,2.434-2.308,.442-3.603,1.105-3.603,2.623,0,1.422,1.264,2.37,3.223,2.37Z" fill="#f7f7f7"/>
      <path d="M47.017,29.96v3.919h-3.697v-3.919h3.697Z" fill="#f7f7f7"/>
    </g>
  </g>
</svg>